<svg width="693" height="462" viewBox="0 0 693 462" fill="none" xmlns="http://www.w3.org/2000/svg">
<path d="M201.951 417.942C201.951 417.942 47.1491 431.521 48.9601 268.572C50.7702 105.622 238.25 174.705 305.153 102.907C416.501 -16.5897 560.341 9.55214 615.621 157.929C672.694 311.12 475.345 453.248 201.951 417.942Z" fill="#E0EFFF"/>
<path d="M146.397 337.373C146.397 337.373 133.421 259.821 105.358 274.003C77.2939 288.186 134.93 330.734 146.397 337.373Z" fill="#77C476"/>
<path d="M162.39 340.691C162.39 340.691 127.084 299.351 149.414 289.694C171.744 280.038 162.39 340.691 162.39 340.691Z" fill="#77C476"/>
<path d="M171.741 367.561C171.741 367.561 139.861 333.035 128.144 349.27C116.428 365.505 171.741 367.561 171.741 367.561Z" fill="#77C476"/>
<path d="M110.488 285.772C110.488 285.772 158.467 377.205 227.268 388.974" stroke="#77C476" stroke-width="1.9595" stroke-miterlimit="10"/>
<path d="M153.337 303.878C153.337 303.878 161.485 318.966 163.899 354.573" stroke="#77C476" stroke-width="1.9595" stroke-miterlimit="10"/>
<path d="M140.225 354.606C140.225 354.606 152.522 363.442 183.89 370.932" stroke="#77C476" stroke-width="1.7715" stroke-miterlimit="10"/>
<path d="M119.53 359.327C119.53 359.327 144.274 412.561 210.567 387.53" stroke="#77C476" stroke-width="1.9595" stroke-miterlimit="10"/>
<path d="M126.62 371.309C126.62 371.309 133.279 361.819 115.11 351.775C115.11 351.775 109.169 367.871 126.62 371.309Z" fill="#77C476"/>
<path d="M137.485 380.602C137.485 380.602 129.218 374.169 136.197 364.961C136.197 364.961 144.22 372.317 137.485 380.602Z" fill="#77C476"/>
<path d="M136.341 381.25C136.341 381.25 128.594 389.449 119.441 381.02C119.441 381.02 128.151 373.177 136.341 381.25Z" fill="#77C476"/>
<path d="M153.273 389.48C153.273 389.48 144.246 384.167 149.978 374.135C149.978 374.135 158.883 380.395 153.273 389.48Z" fill="#77C476"/>
<path d="M152.223 390.269C152.223 390.269 145.599 399.4 135.435 392.223C135.435 392.223 143.059 383.321 152.223 390.269Z" fill="#77C476"/>
<path d="M171.19 393.175C171.19 393.175 160.885 391.294 162.814 379.902C162.814 379.902 173.328 382.713 171.19 393.175Z" fill="#77C476"/>
<path d="M170.474 394.277C170.474 394.277 167.398 405.13 155.385 401.892C155.385 401.892 159.48 390.908 170.474 394.277Z" fill="#77C476"/>
<path d="M191.218 392.755C191.218 392.755 180.781 393.654 179.644 382.156C179.644 382.156 190.528 382.101 191.218 392.755Z" fill="#77C476"/>
<path d="M190.818 394.008C190.818 394.008 190.708 405.288 178.266 405.325C178.266 405.325 179.325 393.652 190.818 394.008Z" fill="#77C476"/>
<path d="M168.425 235.982C168.425 235.982 149.491 291.548 214.69 319.306" stroke="#77C476" stroke-width="1.9595" stroke-miterlimit="10"/>
<path d="M165.263 249.54C165.263 249.54 176.635 247.29 170.455 227.471C170.455 227.471 155.032 234.991 165.263 249.54Z" fill="#77C476"/>
<path d="M166.684 263.768C166.684 263.768 165.162 253.404 176.57 251.578C176.57 251.578 177.279 262.439 166.684 263.768Z" fill="#77C476"/>
<path d="M165.411 263.443C165.411 263.443 154.145 264.009 153.36 251.592C153.36 251.592 165.077 251.949 165.411 263.443Z" fill="#77C476"/>
<path d="M171.952 281.098C171.952 281.098 169.104 271.017 180.182 267.734C180.182 267.734 182.286 278.413 171.952 281.098Z" fill="#77C476"/>
<path d="M170.647 280.941C170.647 280.941 159.548 282.957 157.168 270.744C157.168 270.744 168.832 269.586 170.647 280.941Z" fill="#77C476"/>
<path d="M182.34 296.154C182.34 296.154 176.196 287.67 185.466 280.774C185.466 280.774 191.119 290.076 182.34 296.154Z" fill="#77C476"/>
<path d="M181.061 296.456C181.061 296.456 171.334 302.17 164.896 291.523C164.896 291.523 175.448 286.42 181.061 296.456Z" fill="#77C476"/>
<path d="M197.098 309.702C197.098 309.702 188.937 303.134 196.066 294.042C196.066 294.042 203.967 301.527 197.098 309.702Z" fill="#77C476"/>
<path d="M195.943 310.329C195.943 310.329 188.063 318.402 179.048 309.825C179.048 309.825 187.886 302.125 195.943 310.329Z" fill="#77C476"/>
<path d="M177.007 326.013C177.007 326.013 188.306 383.619 258.661 375.164" stroke="#77C476" stroke-width="1.9595" stroke-miterlimit="10"/>
<path d="M181.028 339.342C181.028 339.342 189.762 331.72 174.522 317.623C174.522 317.623 164.905 331.832 181.028 339.342Z" fill="#77C476"/>
<path d="M189.356 350.964C189.356 350.964 182.867 342.741 191.846 335.469C191.846 335.469 197.876 344.529 189.356 350.964Z" fill="#77C476"/>
<path d="M188.09 351.318C188.09 351.318 178.607 357.428 171.735 347.055C171.735 347.055 182.068 341.522 188.09 351.318Z" fill="#77C476"/>
<path d="M202.563 363.359C202.563 363.359 195.068 356.041 203.033 347.671C203.033 347.671 210.182 355.878 202.563 363.359Z" fill="#77C476"/>
<path d="M201.354 363.874C201.354 363.874 192.738 371.156 184.585 361.758C184.585 361.758 194.119 354.937 201.354 363.874Z" fill="#77C476"/>
<path d="M219.076 371.229C219.076 371.229 209.52 366.939 214.116 356.339C214.116 356.339 223.655 361.583 219.076 371.229Z" fill="#77C476"/>
<path d="M218.118 372.129C218.118 372.129 212.536 381.932 201.646 375.915C201.646 375.915 208.248 366.229 218.118 372.129Z" fill="#77C476"/>
<path d="M238.624 375.613C238.624 375.613 228.276 373.989 229.92 362.554C229.92 362.554 240.502 365.101 238.624 375.613Z" fill="#77C476"/>
<path d="M237.937 376.733C237.937 376.733 235.133 387.659 223.042 384.721C223.042 384.721 226.862 373.639 237.937 376.733Z" fill="#77C476"/>
<path d="M350.237 293.518C350.237 293.518 366.13 350.029 299.521 374.21" stroke="#77C476" stroke-width="1.9595" stroke-miterlimit="10"/>
<path d="M352.66 307.227C352.66 307.227 341.426 304.363 348.673 284.908C348.673 284.908 363.664 293.255 352.66 307.227Z" fill="#77C476"/>
<path d="M350.467 321.356C350.467 321.356 352.55 311.091 341.257 308.648C341.257 308.648 339.961 319.456 350.467 321.356Z" fill="#77C476"/>
<path d="M351.757 321.102C351.757 321.102 362.977 322.279 364.433 309.922C364.433 309.922 352.715 309.642 351.757 321.102Z" fill="#77C476"/>
<path d="M344.268 338.376C344.268 338.376 347.658 328.465 336.775 324.585C336.775 324.585 334.095 335.134 344.268 338.376Z" fill="#77C476"/>
<path d="M345.579 338.289C345.579 338.289 356.553 340.904 359.592 328.839C359.592 328.839 348.007 327.05 345.579 338.289Z" fill="#77C476"/>
<path d="M333.078 352.847C333.078 352.847 339.674 344.709 330.791 337.32C330.791 337.32 324.643 346.302 333.078 352.847Z" fill="#77C476"/>
<path d="M334.34 353.218C334.34 353.218 343.742 359.451 350.749 349.169C350.749 349.169 340.489 343.501 334.34 353.218Z" fill="#77C476"/>
<path d="M317.608 365.575C317.608 365.575 326.112 359.46 319.488 349.993C319.488 349.993 311.192 357.04 317.608 365.575Z" fill="#77C476"/>
<path d="M318.727 366.264C318.727 366.264 326.156 374.752 335.623 366.677C335.623 366.677 327.216 358.509 318.727 366.264Z" fill="#77C476"/>
<path d="M251.873 412.36C252.611 417.306 249.2 421.912 244.255 422.649L218.289 426.522C213.344 427.259 208.737 423.848 208 418.903L194.514 328.47C193.777 323.525 197.187 318.919 202.133 318.182L228.099 314.309C233.044 313.572 237.65 316.982 238.388 321.928L251.873 412.36Z" fill="#001433"/>
<path d="M270.721 148.357C270.721 148.357 304.964 126.971 324.902 158.584C344.84 190.197 352.209 271.09 321.867 276.669C291.526 282.248 270.288 278.063 274.189 232.039C278.089 186.013 270.721 148.357 270.721 148.357Z" fill="#000A19"/>
<path d="M289.279 236.435C289.279 236.435 281.584 258.162 295.163 261.783C308.742 265.404 323.227 257.257 324.584 286.679C325.942 316.1 226.815 289.394 228.172 276.721C229.53 264.047 260.761 273.552 262.12 245.488C263.478 217.425 263.931 216.067 263.931 216.067L289.279 236.435Z" fill="#FFB199"/>
<path d="M287.244 251.408C286.485 244.34 289.279 236.435 289.279 236.435L263.931 216.066C263.931 216.066 263.931 220.244 263.607 230.095C267.837 240.164 276.734 247.562 287.244 251.408Z" fill="#E2887D"/>
<path d="M280.227 159.472C280.227 159.472 323.227 146.937 323.227 200.659C323.227 254.38 271.173 249.008 258.952 208.27C246.204 165.771 280.227 159.472 280.227 159.472Z" fill="#FFB199"/>
<path d="M276.152 187.776C276.152 187.776 276.236 187.36 276.521 186.68C276.805 186.001 277.285 185.047 278.086 184.037C278.873 183.02 279.986 181.929 281.448 181.1C282.169 180.674 282.981 180.328 283.838 180.082C284.691 179.807 285.602 179.71 286.504 179.642C287.408 179.636 288.313 179.677 289.171 179.861C289.602 179.94 290.025 180.032 290.428 180.169C290.837 180.287 291.236 180.412 291.608 180.58C292.373 180.869 293.06 181.248 293.697 181.61C294.323 181.996 294.896 182.38 295.384 182.784C295.896 183.153 296.316 183.554 296.684 183.907C297.063 184.245 297.36 184.577 297.599 184.856C298.082 185.406 298.331 185.741 298.331 185.741C298.331 185.741 297.932 185.591 297.28 185.292C296.631 184.988 295.694 184.583 294.599 184.13C294.055 183.893 293.448 183.692 292.826 183.46C292.196 183.254 291.539 183.029 290.853 182.868C290.173 182.683 289.464 182.553 288.753 182.462C288.04 182.364 287.321 182.342 286.606 182.355C285.895 182.4 285.184 182.46 284.501 182.628C283.816 182.783 283.148 182.984 282.517 183.25C281.245 183.758 280.122 184.472 279.173 185.145C278.239 185.838 277.482 186.498 276.963 186.985C276.444 187.471 276.152 187.776 276.152 187.776Z" fill="#000A19"/>
<path d="M305.574 186.191C305.574 186.191 305.571 185.866 305.668 185.314C305.762 184.762 305.961 183.986 306.345 183.092C306.741 182.209 307.324 181.198 308.243 180.285C308.691 179.822 309.24 179.398 309.861 179.047C310.473 178.679 311.196 178.442 311.929 178.297C312.671 178.157 313.428 178.19 314.142 178.297C314.848 178.432 315.512 178.658 316.09 178.953C316.677 179.237 317.179 179.592 317.631 179.939C318.065 180.308 318.458 180.664 318.774 181.033C319.108 181.385 319.36 181.749 319.583 182.066C319.818 182.372 319.983 182.672 320.116 182.917C320.386 183.405 320.511 183.7 320.511 183.7C320.511 183.7 320.21 183.565 319.735 183.301C319.262 183.037 318.59 182.665 317.805 182.274C317.421 182.063 316.993 181.88 316.558 181.679C316.115 181.5 315.658 181.317 315.189 181.185C314.722 181.04 314.246 180.967 313.778 180.905C313.312 180.895 312.848 180.867 312.399 180.971C311.498 181.12 310.612 181.542 309.803 182.109C308.99 182.666 308.267 183.35 307.646 183.963C307.027 184.582 306.515 185.144 306.152 185.546C305.784 185.957 305.574 186.191 305.574 186.191Z" fill="#000A19"/>
<path d="M308.29 192.076C308.29 192.076 308.439 192.346 308.699 192.818C308.956 193.279 309.324 193.938 309.765 194.728C309.988 195.114 310.237 195.527 310.503 195.949C310.768 196.372 311.072 196.801 311.389 197.211C311.697 197.638 312.078 197.996 312.445 198.315C312.828 198.591 313.212 198.841 313.574 198.838L313.71 198.866L313.719 198.868C313.663 198.872 313.849 198.859 313.596 198.878L313.603 198.877L313.631 198.873L313.687 198.866L313.8 198.851C313.937 198.828 314.128 198.819 314.219 198.783C314.313 198.69 314.428 198.706 314.619 198.54C314.965 198.306 315.299 197.915 315.581 197.503C316.142 196.654 316.564 195.711 316.916 194.897C317.257 194.077 317.53 193.368 317.719 192.869C317.913 192.365 318.023 192.078 318.023 192.078C318.023 192.078 318.205 193.322 317.916 195.177C317.772 196.104 317.524 197.189 316.955 198.31C316.646 198.856 316.305 199.457 315.688 199.932C315.519 200.048 315.423 200.177 315.188 200.279C314.974 200.384 314.749 200.475 314.524 200.552C314.331 200.607 314.214 200.606 314.055 200.635L313.943 200.652L313.887 200.66L313.859 200.665L313.852 200.666C313.594 200.684 313.774 200.67 313.714 200.674L313.695 200.672L313.38 200.637C312.514 200.568 311.835 200.099 311.304 199.646C310.788 199.168 310.394 198.635 310.081 198.114C309.743 197.599 309.512 197.066 309.306 196.564C309.087 196.067 308.939 195.579 308.81 195.129C308.549 194.232 308.423 193.466 308.358 192.927C308.295 192.388 308.29 192.076 308.29 192.076Z" fill="#000A19"/>
<path d="M283.395 192.076C283.395 192.076 283.543 192.346 283.804 192.818C284.061 193.279 284.428 193.938 284.869 194.728C285.093 195.114 285.341 195.527 285.608 195.949C285.873 196.372 286.177 196.801 286.494 197.211C286.801 197.638 287.183 197.996 287.55 198.315C287.932 198.591 288.317 198.841 288.679 198.838L288.815 198.866L288.823 198.868C288.768 198.872 288.953 198.859 288.699 198.878L288.707 198.877L288.735 198.873L288.792 198.866L288.904 198.851C289.041 198.828 289.232 198.819 289.324 198.783C289.417 198.69 289.533 198.706 289.723 198.54C290.07 198.306 290.403 197.915 290.686 197.503C291.247 196.654 291.668 195.711 292.02 194.897C292.361 194.077 292.635 193.368 292.824 192.869C293.017 192.365 293.127 192.078 293.127 192.078C293.127 192.078 293.309 193.322 293.021 195.177C292.877 196.104 292.628 197.189 292.06 198.31C291.75 198.856 291.409 199.457 290.792 199.932C290.624 200.048 290.528 200.177 290.292 200.279C290.079 200.384 289.853 200.475 289.629 200.552C289.435 200.607 289.318 200.606 289.159 200.635L289.048 200.652L288.991 200.66L288.963 200.665L288.956 200.666C288.698 200.684 288.879 200.67 288.818 200.674L288.799 200.672L288.486 200.637C287.619 200.568 286.941 200.099 286.41 199.646C285.893 199.168 285.499 198.635 285.186 198.114C284.85 197.599 284.618 197.066 284.411 196.564C284.192 196.067 284.044 195.579 283.916 195.129C283.654 194.232 283.529 193.466 283.463 192.927C283.399 192.388 283.395 192.076 283.395 192.076Z" fill="#000A19"/>
<path d="M303.537 191.623C303.681 192.384 303.838 193.12 304.009 193.845C304.082 194.208 304.191 194.565 304.281 194.921C304.355 195.278 304.474 195.627 304.569 195.975C304.662 196.325 304.798 196.663 304.899 197.004C305.001 197.347 305.135 197.678 305.257 198.009C305.378 198.341 305.504 198.669 305.652 198.985C305.803 199.301 305.913 199.633 306.084 199.933L306.556 200.849L307.094 201.714C307.252 202.017 307.481 202.266 307.675 202.54C307.878 202.807 308.061 203.092 308.3 203.326C308.525 203.573 308.755 203.816 308.97 204.073L309.721 204.741C309.846 204.854 309.964 204.976 310.094 205.084L310.509 205.376L311.332 205.986L312.93 207.169L311.408 207.994C310.302 208.593 309.171 209.158 308.015 209.68C307.445 209.956 306.846 210.183 306.262 210.436C305.663 210.666 305.065 210.897 304.442 211.087C304.874 210.598 305.332 210.15 305.79 209.701C306.262 209.274 306.717 208.822 307.204 208.42C308.16 207.583 309.142 206.791 310.147 206.032L310.223 208.039L309.144 207.452L308.608 207.145C308.437 207.031 308.276 206.901 308.11 206.779L307.135 206.008C306.84 205.718 306.559 205.412 306.274 205.112C305.974 204.821 305.735 204.484 305.497 204.147C305.265 203.807 304.994 203.488 304.81 203.12L304.228 202.038C304.065 201.665 303.922 201.284 303.771 200.908C303.603 200.538 303.526 200.14 303.409 199.755C303.288 199.372 303.203 198.981 303.141 198.586C303.068 198.195 302.994 197.806 302.97 197.409C302.934 197.016 302.886 196.625 302.896 196.229C302.874 195.444 302.903 194.662 303.013 193.89C303.107 193.12 303.275 192.354 303.537 191.623Z" fill="#FF8255"/>
<path d="M289.279 216.971L312.363 217.423C312.363 217.423 304.895 233.04 289.279 216.971Z" fill="#FF553C"/>
<path d="M289.279 216.971C289.822 217.53 290.352 218.042 290.875 218.525C295.381 217.924 299.86 218.378 303.083 221.946C303.632 222.554 304.186 223.226 304.702 223.941C309.85 222.658 312.363 217.423 312.363 217.423L289.279 216.971Z" fill="#B2382B"/>
<path d="M330.016 304.33C330.016 304.33 329.111 357.741 331.374 357.741C333.637 357.741 387.954 372.226 390.218 381.731C392.48 391.236 394.291 410.247 386.144 384.899C386.144 384.899 392.933 420.205 380.26 384.447C380.26 384.447 375.28 418.394 375.28 383.994C375.28 383.994 370.753 414.773 370.301 384.447C370.301 384.447 312.363 383.541 296.068 370.415C279.774 357.288 307.385 297.088 307.385 297.088L330.016 304.33Z" fill="#E2887D"/>
<path d="M312.364 309.308C312.364 309.308 325.038 310.667 333.186 307.497C333.186 307.497 332.797 267.207 313.27 264.044C294.755 261.046 312.364 309.308 312.364 309.308Z" fill="#FFA94D"/>
<path d="M309.586 300.762C311.089 305.812 312.364 309.309 312.364 309.309C312.364 309.309 325.038 310.668 333.186 307.498C333.186 307.498 333.063 294.967 329.569 283.332C324.226 290.217 317.269 295.99 309.586 300.762Z" fill="#DD8D45"/>
<path d="M241.144 375.394C241.144 375.394 216.449 390.783 215.499 414.321H331.374C331.374 414.321 330.424 389.878 306.679 373.584C282.934 357.288 241.144 375.394 241.144 375.394Z" fill="#DD8D45"/>
<path d="M239.942 375.394C239.942 375.394 210.973 330.13 215.499 294.825C220.026 259.519 237.226 263.593 244.468 263.593C244.468 263.593 255.332 287.13 278.416 283.961C303.339 280.541 305.574 262.687 305.574 262.687C305.574 262.687 320.059 260.424 324.133 274.456C328.207 288.488 334.996 327.867 311.006 334.657L305.575 362.268C305.575 362.268 283.395 383.994 239.942 375.394Z" fill="#FFA94D"/>
<path d="M260.155 317.832C249.897 312.552 240.631 305.594 231.783 298.236C226.814 294.103 221.715 289.923 217.267 285.175C216.562 288.011 215.963 291.209 215.499 294.824C210.973 330.13 239.942 375.393 239.942 375.393C283.395 383.993 305.574 362.267 305.574 362.267L311.006 334.656C315.98 333.249 319.614 330.426 322.24 326.733C301.58 328.123 278.805 327.43 260.155 317.832Z" fill="#DD8D45"/>
<path d="M259.858 140.476C259.858 140.476 286.11 135.044 288.374 157.676C290.637 180.307 266.194 180.76 267.1 204.297C268.005 227.834 276.152 255.898 258.048 265.856C239.943 275.814 222.742 252.277 215.5 297.088C215.5 297.088 199.658 271.74 212.332 254.992C225.005 238.245 231.342 218.782 230.89 183.929C230.437 149.075 250.805 143.644 259.858 140.476Z" fill="#001433"/>
<path d="M258.952 208.269C258.952 208.269 271.626 223.76 288.373 224.666" stroke="#001433" stroke-width="0.9797" stroke-miterlimit="10"/>
<path d="M294.754 225.602C294.475 227.223 292.935 228.31 291.314 228.031L284.344 226.83C282.724 226.551 281.636 225.011 281.915 223.39C282.194 221.769 283.735 220.682 285.355 220.961L292.325 222.162C293.946 222.441 295.033 223.981 294.754 225.602Z" fill="#5665B0"/>
<path d="M254.653 216.971C265.027 216.971 273.438 207.751 273.438 196.376C273.438 185.002 265.027 175.781 254.653 175.781C244.278 175.781 235.868 185.002 235.868 196.376C235.868 207.751 244.278 216.971 254.653 216.971Z" fill="#DD8D45"/>
<path d="M248.768 216.971C259.142 216.971 267.553 207.751 267.553 196.376C267.553 185.002 259.142 175.781 248.768 175.781C238.393 175.781 229.983 185.002 229.983 196.376C229.983 207.751 238.393 216.971 248.768 216.971Z" fill="#FFA94D"/>
<path d="M248.729 207.723C254.331 207.723 258.872 202.744 258.872 196.603C258.872 190.461 254.331 185.482 248.729 185.482C243.128 185.482 238.586 190.461 238.586 196.603C238.586 202.744 243.128 207.723 248.729 207.723Z" fill="#DD8D45"/>
<path d="M245.826 196.15C245.826 196.15 244.92 158.128 265.289 144.549C288.166 129.297 306.932 143.643 306.932 143.643C306.932 143.643 282.036 138.664 268.005 153.601C253.973 168.539 252.163 192.98 252.163 192.98L245.826 196.15Z" fill="#DD8D45"/>
<path d="M257.142 308.857C257.142 308.857 254.879 359.099 253.973 370.868C253.973 370.868 315.532 359.1 323.68 363.626C331.828 368.152 353.554 409.343 331.828 381.279C331.828 381.279 350.838 415.679 326.848 383.09C326.848 383.09 338.617 412.511 321.417 383.09C321.417 383.09 332.733 408.437 315.08 380.827C315.08 380.827 241.301 411.606 230.437 404.817C219.574 398.027 211.879 345.974 217.311 302.974C222.741 259.972 257.142 308.857 257.142 308.857Z" fill="#FFB199"/>
<path d="M241.908 329.753C246.816 329.84 251.573 329.303 256.236 328.36C256.755 317.451 257.142 308.857 257.142 308.857C257.142 308.857 222.741 259.972 217.31 302.973C216.429 309.949 215.895 317.161 215.663 324.381C224.095 327.386 232.731 329.591 241.908 329.753Z" fill="#E2887D"/>
<path d="M212.783 319.72C212.783 319.72 210.068 265.403 237.226 268.119C264.384 270.835 258.5 321.983 258.5 321.983C258.5 321.983 233.605 328.32 212.783 319.72Z" fill="#FFA94D"/>
<path d="M592.999 424.279C592.999 427.278 590.972 429.71 588.472 429.71H100.53C98.0302 429.71 96.0029 427.278 96.0029 424.279V413.416C96.0029 410.415 98.0293 407.984 100.53 407.984H588.473C590.973 407.984 592.999 410.416 592.999 413.416L592.999 424.279Z" fill="#5665B0"/>
<path d="M545.061 361.815C545.061 364.315 543.034 366.342 540.534 366.342H373.964C371.464 366.342 369.437 364.315 369.437 361.815V232.361C369.437 229.861 371.463 227.834 373.964 227.834H540.534C543.034 227.834 545.061 229.86 545.061 232.361V361.815Z" fill="#5665B0"/>
<path d="M557.732 361.815C557.732 364.315 555.705 366.342 553.205 366.342H386.636C384.136 366.342 382.109 364.315 382.109 361.815V232.361C382.109 229.861 384.135 227.834 386.636 227.834H553.206C555.706 227.834 557.733 229.86 557.733 232.361V361.815H557.732Z" fill="#001433"/>
<path d="M483.274 402.553C483.274 405.052 481.248 407.079 478.747 407.079H455.21C452.71 407.079 450.684 405.053 450.684 402.553V305.688C450.684 303.188 452.71 301.161 455.21 301.161H478.747C481.247 301.161 483.274 303.187 483.274 305.688V402.553Z" fill="#5665B0"/>
<path d="M521.748 403.458C521.748 405.958 519.722 407.984 517.222 407.984H416.736C414.236 407.984 412.209 405.958 412.209 403.458V402.552C412.209 400.052 414.235 398.025 416.736 398.025H517.222C519.722 398.025 521.748 400.052 521.748 402.552V403.458Z" fill="#5665B0"/>
<path d="M483.274 402.553C483.274 405.052 481.248 407.079 478.747 407.079H455.21C452.71 407.079 450.684 405.053 450.684 402.553V305.688C450.684 303.188 452.71 301.161 455.21 301.161H478.747C481.247 301.161 483.274 303.187 483.274 305.688V402.553Z" fill="#5665B0"/>
<path d="M394.065 403.458C394.065 405.958 392.039 407.984 389.539 407.984H289.054C286.554 407.984 284.527 405.958 284.527 403.458V402.552C284.527 400.052 286.553 398.025 289.054 398.025H389.539C392.04 398.025 394.066 400.052 394.066 402.552V403.458H394.065Z" fill="#5665B0"/>
<path d="M437.057 92.0557H335.367C329.783 92.0557 325.256 96.5823 325.256 102.166V141.544C325.256 147.128 329.783 151.655 335.367 151.655H349.397V178.209L364.283 151.655H437.056C442.639 151.655 447.166 147.128 447.166 141.544V102.166C447.167 96.5823 442.64 92.0557 437.057 92.0557Z" fill="#77C476"/>
<g opacity="0.25">
<path d="M357.243 129.326C360.91 129.326 363.882 126.353 363.882 122.687C363.882 119.02 360.91 116.048 357.243 116.048C353.577 116.048 350.604 119.02 350.604 122.687C350.604 126.353 353.577 129.326 357.243 129.326Z" fill="black"/>
<path d="M388.023 129.326C391.689 129.326 394.662 126.353 394.662 122.687C394.662 119.02 391.689 116.048 388.023 116.048C384.356 116.048 381.384 119.02 381.384 122.687C381.384 126.353 384.356 129.326 388.023 129.326Z" fill="black"/>
<path d="M418.802 129.326C422.469 129.326 425.441 126.353 425.441 122.687C425.441 119.02 422.469 116.048 418.802 116.048C415.135 116.048 412.163 119.02 412.163 122.687C412.163 126.353 415.135 129.326 418.802 129.326Z" fill="black"/>
</g>
<path d="M355.432 127.514C359.099 127.514 362.071 124.542 362.071 120.875C362.071 117.209 359.099 114.236 355.432 114.236C351.766 114.236 348.793 117.209 348.793 120.875C348.793 124.542 351.766 127.514 355.432 127.514Z" fill="white"/>
<path d="M386.212 127.514C389.878 127.514 392.851 124.542 392.851 120.875C392.851 117.209 389.878 114.236 386.212 114.236C382.545 114.236 379.573 117.209 379.573 120.875C379.573 124.542 382.545 127.514 386.212 127.514Z" fill="white"/>
<path d="M416.991 127.514C420.658 127.514 423.63 124.542 423.63 120.875C423.63 117.209 420.658 114.236 416.991 114.236C413.324 114.236 410.352 117.209 410.352 120.875C410.352 124.542 413.324 127.514 416.991 127.514Z" fill="white"/>
<path d="M225.296 93.0001L219.815 97.2607C223.046 101.44 226.992 104.887 231.544 107.506L235.008 101.485C238.813 103.673 242.986 105.068 247.271 105.627L246.372 112.511C251.629 113.198 256.882 112.852 261.985 111.482L260.186 104.777C264.299 103.674 268.266 101.759 271.848 98.995L276.116 104.469C280.285 101.246 283.726 97.3115 286.341 92.7746L280.323 89.306C282.515 85.5037 283.913 81.3318 284.478 77.0491L291.361 77.9555C292.053 72.6989 291.712 67.445 290.348 62.3418L283.642 64.1343C282.548 60.0373 280.645 56.0854 277.904 52.5132L283.398 48.2665L283.325 48.1713C280.076 43.968 276.105 40.5067 271.524 37.8844L268.074 43.9117C264.265 41.731 260.089 40.345 255.803 39.7943L256.688 32.9096C251.43 32.2332 246.177 32.5899 241.077 33.9704L242.89 40.674C238.795 41.7819 234.845 43.6936 231.279 46.449L227.027 40.9632C222.836 44.2027 219.382 48.1611 216.762 52.7276L222.784 56.1842C220.6 59.9911 219.209 64.1658 218.654 68.4503L211.77 67.5578C211.088 72.8162 211.439 78.0683 212.814 83.1697L219.52 81.3632C220.622 85.4677 222.537 89.4261 225.296 93.0001ZM264.023 63.0893C269.332 69.9565 268.063 79.8617 261.196 85.1701C254.329 90.4785 244.422 89.2099 239.115 82.3427C233.807 75.4755 235.075 65.5693 241.942 60.2619C248.81 54.9535 258.715 56.2221 264.023 63.0893Z" fill="#5665B0"/>
<path d="M182.643 120.556L180.204 124.992C183.575 126.857 187.214 128.025 191.019 128.463L191.598 123.431C194.779 123.797 197.976 123.524 201.007 122.661L202.394 127.531C206.113 126.471 209.53 124.722 212.552 122.33L209.409 118.36C211.844 116.433 213.948 114.004 215.547 111.119L219.987 113.551C221.848 110.187 223.014 106.559 223.455 102.765L218.423 102.181C218.791 99.0015 218.523 95.8035 217.662 92.7728L222.534 91.3905C221.478 87.6705 219.732 84.2508 217.344 81.2274L213.371 84.3653C211.455 81.938 209.039 79.8414 206.171 78.242L208.622 73.8105L208.545 73.768C205.155 71.8923 201.496 70.7215 197.671 70.29L197.101 75.3231C193.921 74.9636 190.724 75.2418 187.695 76.1112L186.299 71.2455C182.583 72.3118 179.168 74.0692 176.151 76.467L179.302 80.4319C176.881 82.3566 174.788 84.7784 173.196 87.6538L168.763 85.2089C166.893 88.5899 165.723 92.2387 165.289 96.053L170.321 96.6277C169.959 99.8081 170.234 103.005 171.1 106.035L166.232 107.427C167.295 111.145 169.049 114.561 171.443 117.579L175.411 114.432C177.337 116.862 179.763 118.961 182.643 120.556ZM199.933 89.3355C205.472 92.4004 207.484 99.3997 204.42 104.939C201.356 110.478 194.356 112.491 188.817 109.427C183.277 106.362 181.265 99.3628 184.329 93.8234C187.394 88.284 194.394 86.2706 199.933 89.3355Z" fill="#77C476"/>
<path d="M119.484 230.666C147.149 230.666 169.576 208.239 169.576 180.574C169.576 152.909 147.149 130.482 119.484 130.482C91.8195 130.482 69.3926 152.909 69.3926 180.574C69.3926 208.239 91.8195 230.666 119.484 230.666Z" fill="#5665B0"/>
<g opacity="0.25">
<path d="M124.333 181.208C124.99 180.871 125.721 180.694 126.48 180.694C127.739 180.694 128.921 181.183 129.814 182.07L131.734 180.151C136.484 181.816 141.98 180.749 145.778 176.952C148.974 173.756 150.234 169.358 149.561 165.214C149.487 164.759 149.163 164.381 148.723 164.239C148.284 164.097 147.801 164.213 147.474 164.54L144.624 167.39C142.302 169.712 138.538 169.712 136.216 167.39C133.896 165.068 133.896 161.305 136.216 158.983L139.068 156.133C139.395 155.805 139.511 155.323 139.369 154.883C139.227 154.442 138.851 154.121 138.393 154.046C134.248 153.373 129.852 154.632 126.657 157.829C122.802 161.684 121.764 167.285 123.537 172.084L119.374 176.248L124.333 181.208Z" fill="black"/>
<path d="M116.745 188.754L111.806 183.815L94.5362 201.085C92.29 203.329 92.29 206.971 94.5362 209.216C96.7816 211.462 100.422 211.462 102.667 209.216L117.554 194.329C116.054 192.819 115.784 190.539 116.745 188.754Z" fill="black"/>
<path d="M127.759 184.142C127.406 183.788 126.944 183.612 126.48 183.612C126.017 183.612 125.555 183.788 125.201 184.142L124.17 185.172L105.805 166.809L106.664 165.95C107.445 165.169 107.348 163.871 106.458 163.215L98.9648 157.697C98.245 157.167 97.2462 157.242 96.6133 157.874L93.4319 161.056C92.799 161.688 92.7241 162.687 93.2545 163.407L98.7726 170.9C99.4287 171.792 100.725 171.89 101.508 171.107L102.366 170.249L120.73 188.612L119.626 189.716C118.92 190.423 118.92 191.568 119.626 192.274L136.567 209.216C138.812 211.461 142.454 211.461 144.699 209.216C146.944 206.97 146.944 203.329 144.699 201.084L127.759 184.142Z" fill="black"/>
</g>
<path d="M122.522 179.397C123.179 179.061 123.91 178.883 124.67 178.883C125.928 178.883 127.111 179.373 128.004 180.259L129.924 178.34C134.674 180.005 140.17 178.939 143.969 175.141C147.165 171.945 148.425 167.548 147.751 163.404C147.678 162.948 147.354 162.57 146.914 162.429C146.475 162.286 145.992 162.402 145.665 162.729L142.815 165.58C140.493 167.902 136.729 167.902 134.407 165.58C132.087 163.258 132.087 159.494 134.407 157.172L137.258 154.323C137.585 153.994 137.701 153.512 137.559 153.072C137.417 152.632 137.04 152.31 136.583 152.235C132.438 151.563 128.042 152.822 124.846 156.018C120.992 159.873 119.954 165.474 121.727 170.274L117.563 174.437L122.522 179.397Z" fill="white"/>
<path d="M114.935 186.943L109.996 182.004L92.7262 199.273C90.4799 201.518 90.4799 205.159 92.7262 207.405C94.9715 209.65 98.6121 209.65 100.857 207.405L115.745 192.517C114.243 191.007 113.973 188.729 114.935 186.943Z" fill="white"/>
<path d="M125.949 182.331C125.596 181.978 125.133 181.801 124.67 181.801C124.207 181.801 123.745 181.978 123.391 182.331L122.36 183.362L103.995 164.998L104.853 164.14C105.635 163.358 105.538 162.061 104.647 161.405L97.1538 155.887C96.434 155.356 95.4352 155.432 94.8022 156.064L91.6209 159.245C90.9879 159.877 90.9131 160.876 91.4435 161.597L96.9616 169.09C97.6176 169.981 98.914 170.079 99.6967 169.297L100.555 168.438L118.919 186.802L117.815 187.906C117.109 188.613 117.109 189.758 117.815 190.464L134.756 207.405C137.001 209.65 140.643 209.65 142.888 207.405C145.133 205.16 145.133 201.518 142.888 199.274L125.949 182.331Z" fill="white"/>
<path d="M502.316 214.196C528.981 214.196 550.598 192.58 550.598 165.915C550.598 139.249 528.981 117.633 502.316 117.633C475.651 117.633 454.034 139.249 454.034 165.915C454.034 192.58 475.651 214.196 502.316 214.196Z" fill="#FFA94D"/>
<g opacity="0.25">
<path d="M535.151 148.693L515.996 167.726L535.151 186.758C535.498 186.035 535.707 185.235 535.707 184.38V151.072C535.707 150.217 535.497 149.417 535.151 148.693Z" fill="black"/>
<path d="M508.051 170.436L532.534 146.077C531.811 145.73 531.01 145.521 530.156 145.521H478.097C477.242 145.521 476.442 145.73 475.718 146.077L500.201 170.436C502.366 172.601 505.886 172.601 508.051 170.436Z" fill="black"/>
<path d="M473.102 148.693C472.755 149.417 472.545 150.217 472.545 151.072V184.38C472.545 185.235 472.755 186.035 473.102 186.758L492.257 167.726L473.102 148.693Z" fill="black"/>
<path d="M510.668 173.053C507.06 176.66 501.191 176.66 497.585 173.053L494.875 170.342L475.719 189.374C476.443 189.721 477.243 189.931 478.098 189.931H530.157C531.011 189.931 531.812 189.721 532.535 189.374L513.38 170.342L510.668 173.053Z" fill="black"/>
</g>
<path d="M533.34 146.882L514.185 165.914L533.34 184.947C533.687 184.223 533.896 183.423 533.896 182.569V149.26C533.896 148.406 533.687 147.606 533.34 146.882Z" fill="white"/>
<path d="M506.241 168.626L530.724 144.266C530.001 143.92 529.2 143.71 528.346 143.71H476.287C475.432 143.71 474.632 143.92 473.908 144.266L498.391 168.626C500.555 170.79 504.076 170.79 506.241 168.626Z" fill="white"/>
<path d="M471.292 146.882C470.945 147.605 470.735 148.406 470.735 149.26V182.569C470.735 183.423 470.945 184.223 471.292 184.947L490.447 165.914L471.292 146.882Z" fill="white"/>
<path d="M508.858 171.241C505.25 174.849 499.381 174.849 495.775 171.241L493.064 168.53L473.908 187.563C474.632 187.909 475.432 188.119 476.287 188.119H528.346C529.2 188.119 530.001 187.909 530.724 187.563L511.569 168.53L508.858 171.241Z" fill="white"/>
<path d="M542.443 107.553C561.609 107.553 577.145 92.0164 577.145 72.8512C577.145 53.6859 561.609 38.1494 542.443 38.1494C523.278 38.1494 507.742 53.6859 507.742 72.8512C507.742 92.0164 523.278 107.553 542.443 107.553Z" fill="#5665B0"/>
<g opacity="0.25">
<path d="M546.225 81.7119L538.039 81.054V71.049C538.274 71.1848 538.798 71.3262 539.606 71.4786C540.414 71.6311 541.122 71.7068 541.728 71.7068C543.109 71.7068 544.296 71.3446 545.291 70.6193C546.284 69.8958 546.781 68.9441 546.781 67.7651C546.781 66.6526 546.417 65.7175 545.694 64.9607C544.97 64.2021 543.934 63.8242 542.587 63.8242C541.273 63.8242 540.262 64.2206 539.555 65.0106C538.847 65.8043 538.377 66.7727 538.14 67.9175L531.924 65.3904C532.092 63.4703 532.75 61.7101 533.896 60.1106C535.042 58.5112 536.524 57.2379 538.341 56.2945C540.161 55.353 542.114 54.8799 544.203 54.8799C546.595 54.8799 548.735 55.5027 550.62 56.7491C552.508 57.9975 553.972 59.6302 555.019 61.651C556.061 63.6717 556.583 65.7942 556.583 68.0192C556.583 70.4437 555.977 72.4996 554.766 74.1832C553.552 75.8667 552.119 77.1067 550.471 77.8967C548.82 78.6886 547.37 79.0684 546.124 79.0332L546.225 81.7119ZM538.341 92.8027C537.332 91.7087 536.826 90.4197 536.826 88.9376C536.826 87.4222 537.373 86.1416 538.469 85.0965C539.563 84.0543 540.835 83.5294 542.283 83.5294C543.63 83.5294 544.785 84.0025 545.745 84.9459C546.705 85.8893 547.185 87.1524 547.185 88.7352C547.185 90.3181 546.706 91.6652 545.745 92.7777C544.785 93.8902 543.564 94.4456 542.082 94.4456C540.6 94.4446 539.353 93.8958 538.341 92.8027Z" fill="black"/>
</g>
<path d="M544.414 79.9004L536.229 79.2426V69.2384C536.464 69.3742 536.988 69.5156 537.796 69.6681C538.605 69.8205 539.312 69.8963 539.918 69.8963C541.299 69.8963 542.486 69.5341 543.481 68.8088C544.474 68.0853 544.971 67.1326 544.971 65.9545C544.971 64.842 544.607 63.9069 543.884 63.1502C543.16 62.3916 542.124 62.0137 540.777 62.0137C539.463 62.0137 538.452 62.411 537.745 63.2001C537.037 63.9938 536.567 64.9621 536.33 66.107L530.114 63.5798C530.282 61.6598 530.941 59.8995 532.086 58.3001C533.231 56.7007 534.714 55.4274 536.531 54.484C538.351 53.5424 540.304 53.0693 542.393 53.0693C544.785 53.0693 546.925 53.6921 548.81 54.9386C550.698 56.1869 552.162 57.8196 553.209 59.8404C554.251 61.8612 554.773 63.9836 554.773 66.2077C554.773 68.6313 554.167 70.6882 552.956 72.3717C551.742 74.0552 550.309 75.2952 548.661 76.0853C547.01 76.8771 545.56 77.2569 544.314 77.2218L544.414 79.9004ZM536.531 90.9912C535.522 89.8972 535.016 88.6082 535.016 87.1261C535.016 85.6108 535.563 84.3301 536.659 83.2851C537.753 82.2428 539.025 81.718 540.473 81.718C541.82 81.718 542.975 82.191 543.935 83.1344C544.895 84.0779 545.375 85.341 545.375 86.9238C545.375 88.5066 544.896 89.8538 543.935 90.9663C542.975 92.0788 541.754 92.6341 540.272 92.6341C538.789 92.6341 537.543 92.0852 536.531 90.9912Z" fill="white"/>
</svg>
